# xmcd
#
# Track frame offsets: 
#        150
#        19166
#        36838
#        58641
#        78138
#        97976
#        123306
#        141006
#
# Disc length: 2142 seconds
#
# Revision: 0
# Processed by: cddbd v1.5.2PL0 Copyright (c) Steve Scherf et al.
# Submitted via: ExactAudioCopy v0.95a5
#
DISCID=5c085c08
DTITLE=Ana Popovic - Still making History
DYEAR=2006
DGENRE=Pop/Funk
TTITLE0=Hold On
TTITLE1=Is This Everything
TTITLE2=My Favorite Night
TTITLE3=Shadow After Dark
TTITLE4=Calenders
TTITLE5=You Complete Me
TTITLE6=Is This Everything (no BGV)
TTITLE7=Calendars (no voc in Bass break)
EXTD=
EXTT0=
EXTT1=
EXTT2=
EXTT3=
EXTT4=
EXTT5=
EXTT6=
EXTT7=
PLAYORDER=
